<svg width="19" height="19" viewBox="0 0 19 19" fill="none" xmlns="http://www.w3.org/2000/svg">
<path d="M1.97949 3.36456C1.97949 3.20709 2.04205 3.05607 2.1534 2.94472C2.26475 2.83337 2.41577 2.77081 2.57324 2.77081H3.01499C3.76708 2.77081 4.21833 3.27669 4.47562 3.74694C4.64741 4.06044 4.7717 4.42381 4.86908 4.75315C4.89541 4.75107 4.92182 4.75001 4.94824 4.74998H14.8425C15.4996 4.74998 15.9746 5.37856 15.7941 6.0111L14.3469 11.0849C14.2172 11.54 13.9427 11.9404 13.565 12.2255C13.1873 12.5107 12.727 12.665 12.2537 12.6651H7.54491C7.06792 12.6651 6.60413 12.5085 6.22482 12.2193C5.84551 11.93 5.57168 11.5243 5.44541 11.0643L4.84374 8.86981L3.84624 5.50681L3.84545 5.50048C3.72195 5.0516 3.60637 4.63123 3.43378 4.31773C3.26833 4.01294 3.13533 3.95831 3.01578 3.95831H2.57324C2.41577 3.95831 2.26475 3.89576 2.1534 3.78441C2.04205 3.67306 1.97949 3.52204 1.97949 3.36456ZM5.99562 8.58165L6.59016 10.75C6.70891 11.1791 7.0992 11.4776 7.54491 11.4776H12.2537C12.4688 11.4776 12.6781 11.4075 12.8498 11.2779C13.0215 11.1483 13.1463 10.9664 13.2053 10.7595L14.5805 5.93748H5.21345L5.98453 8.53969L5.99562 8.58165Z" fill="#535399"/>
<path d="M8.70866 15.0416C8.70866 15.4616 8.54184 15.8643 8.24491 16.1612C7.94798 16.4582 7.54525 16.625 7.12533 16.625C6.7054 16.625 6.30267 16.4582 6.00574 16.1612C5.70881 15.8643 5.54199 15.4616 5.54199 15.0416C5.54199 14.6217 5.70881 14.219 6.00574 13.9221C6.30267 13.6251 6.7054 13.4583 7.12533 13.4583C7.54525 13.4583 7.94798 13.6251 8.24491 13.9221C8.54184 14.219 8.70866 14.6217 8.70866 15.0416ZM7.52116 15.0416C7.52116 14.9367 7.47946 14.836 7.40522 14.7617C7.33099 14.6875 7.23031 14.6458 7.12533 14.6458C7.02034 14.6458 6.91966 14.6875 6.84543 14.7617C6.7712 14.836 6.72949 14.9367 6.72949 15.0416C6.72949 15.1466 6.7712 15.2473 6.84543 15.3215C6.91966 15.3958 7.02034 15.4375 7.12533 15.4375C7.23031 15.4375 7.33099 15.3958 7.40522 15.3215C7.47946 15.2473 7.52116 15.1466 7.52116 15.0416Z" fill="#535399"/>
<path d="M14.2507 15.0416C14.2507 15.4616 14.0838 15.8643 13.7869 16.1612C13.49 16.4582 13.0872 16.625 12.6673 16.625C12.2474 16.625 11.8447 16.4582 11.5477 16.1612C11.2508 15.8643 11.084 15.4616 11.084 15.0416C11.084 14.6217 11.2508 14.219 11.5477 13.9221C11.8447 13.6251 12.2474 13.4583 12.6673 13.4583C13.0872 13.4583 13.49 13.6251 13.7869 13.9221C14.0838 14.219 14.2507 14.6217 14.2507 15.0416ZM13.0632 15.0416C13.0632 14.9367 13.0214 14.836 12.9472 14.7617C12.873 14.6875 12.7723 14.6458 12.6673 14.6458C12.5623 14.6458 12.4617 14.6875 12.3874 14.7617C12.3132 14.836 12.2715 14.9367 12.2715 15.0416C12.2715 15.1466 12.3132 15.2473 12.3874 15.3215C12.4617 15.3958 12.5623 15.4375 12.6673 15.4375C12.7723 15.4375 12.873 15.3958 12.9472 15.3215C13.0214 15.2473 13.0632 15.1466 13.0632 15.0416Z" fill="#535399"/>
</svg>
