<svg width="111" height="111" viewBox="0 0 111 111" fill="none" xmlns="http://www.w3.org/2000/svg">
<g filter="url(#filter0_d_108_8647)">
<circle cx="55.5" cy="47.5" r="15.5" fill="white"/>
</g>
<path d="M61.1202 42.4575C60.3239 41.661 59.2682 41.1767 58.1451 41.0928C57.022 41.0088 55.906 41.3307 55.0002 42C54.0459 41.2902 52.8582 40.9684 51.6761 41.0993C50.4941 41.2302 49.4055 41.8041 48.6297 42.7054C47.8538 43.6068 47.4483 44.7686 47.4948 45.957C47.5413 47.1454 48.0363 48.272 48.8802 49.11L54.4677 54.6975C54.5374 54.7678 54.6204 54.8236 54.7118 54.8617C54.8032 54.8997 54.9012 54.9193 55.0002 54.9193C55.0992 54.9193 55.1972 54.8997 55.2886 54.8617C55.38 54.8236 55.463 54.7678 55.5327 54.6975L61.1202 49.11C61.5572 48.6733 61.9039 48.1547 62.1404 47.584C62.3769 47.0133 62.4986 46.4015 62.4986 45.7837C62.4986 45.1659 62.3769 44.5542 62.1404 43.9835C61.9039 43.4127 61.5572 42.8942 61.1202 42.4575ZM60.0627 48.0525L55.0002 53.1075L49.9377 48.0525C49.4916 47.6045 49.1877 47.0348 49.0641 46.4147C48.9406 45.7947 49.0029 45.152 49.2432 44.5672C49.4835 43.9825 49.8911 43.4817 50.415 43.1277C50.9388 42.7737 51.5555 42.5823 52.1877 42.5775C53.0323 42.5796 53.8415 42.9167 54.4377 43.515C54.5074 43.5853 54.5904 43.6411 54.6818 43.6792C54.7732 43.7172 54.8712 43.7368 54.9702 43.7368C55.0692 43.7368 55.1672 43.7172 55.2586 43.6792C55.35 43.6411 55.433 43.5853 55.5027 43.515C56.1165 42.9831 56.9093 42.7043 57.7209 42.735C58.5324 42.7657 59.302 43.1035 59.8738 43.6801C60.4457 44.2568 60.7771 45.0291 60.8011 45.8409C60.825 46.6526 60.5396 47.4432 60.0027 48.0525H60.0627Z" fill="#535399"/>
<defs>
<filter id="filter0_d_108_8647" x="0" y="0" width="111" height="111" filterUnits="userSpaceOnUse" color-interpolation-filters="sRGB">
<feFlood flood-opacity="0" result="BackgroundImageFix"/>
<feColorMatrix in="SourceAlpha" type="matrix" values="0 0 0 0 0 0 0 0 0 0 0 0 0 0 0 0 0 0 127 0" result="hardAlpha"/>
<feOffset dy="8"/>
<feGaussianBlur stdDeviation="20"/>
<feColorMatrix type="matrix" values="0 0 0 0 0.192157 0 0 0 0 0.12549 0 0 0 0 0.541176 0 0 0 0.05 0"/>
<feBlend mode="normal" in2="BackgroundImageFix" result="effect1_dropShadow_108_8647"/>
<feBlend mode="normal" in="SourceGraphic" in2="effect1_dropShadow_108_8647" result="shape"/>
</filter>
</defs>
</svg>
