<svg width="12" height="10" viewBox="0 0 12 10" fill="none" xmlns="http://www.w3.org/2000/svg">
<path d="M1.875 7.625H0.375C0.275544 7.625 0.180161 7.66451 0.109835 7.73483C0.0395088 7.80516 0 7.90054 0 8L0 9.5C0 9.59946 0.0395088 9.69484 0.109835 9.76517C0.180161 9.83549 0.275544 9.875 0.375 9.875H1.875C1.97446 9.875 2.06984 9.83549 2.14016 9.76517C2.21049 9.69484 2.25 9.59946 2.25 9.5V8C2.25 7.90054 2.21049 7.80516 2.14016 7.73483C2.06984 7.66451 1.97446 7.625 1.875 7.625ZM1.875 0.125H0.375C0.275544 0.125 0.180161 0.164509 0.109835 0.234835C0.0395088 0.305161 0 0.400544 0 0.5L0 2C0 2.09946 0.0395088 2.19484 0.109835 2.26516C0.180161 2.33549 0.275544 2.375 0.375 2.375H1.875C1.97446 2.375 2.06984 2.33549 2.14016 2.26516C2.21049 2.19484 2.25 2.09946 2.25 2V0.5C2.25 0.400544 2.21049 0.305161 2.14016 0.234835C2.06984 0.164509 1.97446 0.125 1.875 0.125ZM1.875 3.875H0.375C0.275544 3.875 0.180161 3.91451 0.109835 3.98484C0.0395088 4.05516 0 4.15054 0 4.25L0 5.75C0 5.84946 0.0395088 5.94484 0.109835 6.01517C0.180161 6.08549 0.275544 6.125 0.375 6.125H1.875C1.97446 6.125 2.06984 6.08549 2.14016 6.01517C2.21049 5.94484 2.25 5.84946 2.25 5.75V4.25C2.25 4.15054 2.21049 4.05516 2.14016 3.98484C2.06984 3.91451 1.97446 3.875 1.875 3.875ZM11.625 8H4.125C4.02554 8 3.93016 8.03951 3.85984 8.10983C3.78951 8.18016 3.75 8.27554 3.75 8.375V9.125C3.75 9.22446 3.78951 9.31984 3.85984 9.39017C3.93016 9.46049 4.02554 9.5 4.125 9.5H11.625C11.7245 9.5 11.8198 9.46049 11.8902 9.39017C11.9605 9.31984 12 9.22446 12 9.125V8.375C12 8.27554 11.9605 8.18016 11.8902 8.10983C11.8198 8.03951 11.7245 8 11.625 8ZM11.625 0.5H4.125C4.02554 0.5 3.93016 0.539509 3.85984 0.609835C3.78951 0.680161 3.75 0.775544 3.75 0.875V1.625C3.75 1.72446 3.78951 1.81984 3.85984 1.89016C3.93016 1.96049 4.02554 2 4.125 2H11.625C11.7245 2 11.8198 1.96049 11.8902 1.89016C11.9605 1.81984 12 1.72446 12 1.625V0.875C12 0.775544 11.9605 0.680161 11.8902 0.609835C11.8198 0.539509 11.7245 0.5 11.625 0.5ZM11.625 4.25H4.125C4.02554 4.25 3.93016 4.28951 3.85984 4.35984C3.78951 4.43016 3.75 4.52554 3.75 4.625V5.375C3.75 5.47446 3.78951 5.56984 3.85984 5.64017C3.93016 5.71049 4.02554 5.75 4.125 5.75H11.625C11.7245 5.75 11.8198 5.71049 11.8902 5.64017C11.9605 5.56984 12 5.47446 12 5.375V4.625C12 4.52554 11.9605 4.43016 11.8902 4.35984C11.8198 4.28951 11.7245 4.25 11.625 4.25Z" fill="#151875"/>
</svg>
