<svg width="14" height="14" viewBox="0 0 14 14" fill="none" xmlns="http://www.w3.org/2000/svg">
<path d="M10.0438 13.666H10.0625C10.4145 13.666 10.7472 13.5274 10.9992 13.2754L12.8072 11.4674C12.8691 11.4055 12.9183 11.332 12.9518 11.2512C12.9854 11.1703 13.0026 11.0836 13.0026 10.996C13.0026 10.9085 12.9854 10.8218 12.9518 10.7409C12.9183 10.66 12.8691 10.5866 12.8072 10.5247L10.1405 7.85804C10.0786 7.79608 10.0052 7.74692 9.92428 7.71338C9.8434 7.67984 9.75671 7.66257 9.66915 7.66257C9.5816 7.66257 9.4949 7.67984 9.41402 7.71338C9.33315 7.74692 9.25968 7.79608 9.19782 7.85804L8.13515 8.92071C7.64249 8.77404 6.72315 8.44071 6.14049 7.85804C5.55782 7.27537 5.22449 6.35604 5.07782 5.86337L6.14049 4.80071C6.20245 4.73885 6.25161 4.66538 6.28515 4.5845C6.31869 4.50363 6.33595 4.41693 6.33595 4.32937C6.33595 4.24182 6.31869 4.15512 6.28515 4.07425C6.25161 3.99337 6.20245 3.9199 6.14049 3.85804L3.47382 1.19137C3.34637 1.07108 3.17774 1.00406 3.00249 1.00406C2.82723 1.00406 2.6586 1.07108 2.53115 1.19137L0.723819 2.99937C0.470485 3.25271 0.327819 3.60071 0.333152 3.95604C0.348486 4.90537 0.599819 8.20271 3.19849 10.8014C5.79715 13.4 9.09449 13.6507 10.0438 13.666ZM3.00315 2.60537L4.72715 4.32937L3.86515 5.19137C3.78671 5.2696 3.72908 5.36621 3.69753 5.47241C3.66597 5.5786 3.66149 5.691 3.68449 5.79937C3.70049 5.87604 4.09182 7.69404 5.19849 8.80071C6.30515 9.90737 8.12315 10.2987 8.19982 10.3147C8.30819 10.3378 8.42062 10.3334 8.52684 10.3018C8.63305 10.2703 8.72966 10.2126 8.80782 10.134L9.66982 9.27204L11.3938 10.996L10.0565 12.3327C9.22449 12.3187 6.37782 12.0954 4.14115 9.85804C1.89715 7.61404 1.67982 4.75737 1.66649 3.94204L3.00315 2.60537ZM12.3325 6.33271H13.6658C13.6658 2.91271 11.0838 0.333374 7.65915 0.333374V1.66671C10.3672 1.66671 12.3325 3.62871 12.3325 6.33271Z" fill="white"/>
</svg>
